<svg xmlns="http://www.w3.org/2000/svg" data-name="Layer 1" width="832.20604" height="500.35625" viewBox="0 0 832.20604 500.35625" xmlns:xlink="http://www.w3.org/1999/xlink"><path d="M227.31663,699.06c-.05567-.24512-5.44-24.79785,5.55615-45.19043,10.99609-20.39166,34.46826-29.38477,34.7041-29.47363l1.07275-.40235.25342,1.11817c.05566.24511,5.43994,24.79785-5.55615,45.19043-10.99561,20.39166-34.46826,29.38476-34.7041,29.47363l-1.07325.40234Zm39.86181-72.33783c-4.70166,2.02246-23.25781,10.874-32.54492,28.09668-9.28809,17.22461-6.48584,37.59375-5.59229,42.63086,4.69971-2.01758,23.24854-10.85547,32.54493-28.09668C270.87375,652.1293,268.07248,631.76211,267.17844,626.72213Z" transform="translate(-183.89698 -199.82188)" fill="#f1f1f1"/><path d="M254.94373,663.14907c-19.76056,11.88861-27.371,35.50269-27.371,35.50269s24.42779,4.3388,44.18835-7.54981,27.371-35.50268,27.371-35.50268S274.7043,651.26046,254.94373,663.14907Z" transform="translate(-183.89698 -199.82188)" fill="#f1f1f1"/><path d="M554.19262,472.56441a10.83726,10.83726,0,0,0-10.47951-12.89681l-9.15082-23.01244-15.3409,2.15012,13.37918,32.31652a10.896,10.896,0,0,0,21.59205,1.44261Z" transform="translate(-183.89698 -199.82188)" fill="#9f616a"/><path d="M525.92964,464.47855l-4.75346-11.3351-29.62149-56.38319-1.23935-50.12525,25.13872-1.24142.1926.77379,1.7399,34.31966,22.89943,47.95826,4.86707,25.34147Z" transform="translate(-183.89698 -199.82188)" fill="#101820"/><polygon points="296.518 484.658 310.92 484.657 317.771 429.106 296.515 429.107 296.518 484.658" fill="#9f616a"/><path d="M476.741,679.77772l28.363-.00114h.00115a18.07611,18.07611,0,0,1,18.07514,18.07485v.58737l-46.43846.00172Z" transform="translate(-183.89698 -199.82188)" fill="#2f2e41"/><polygon points="164.095 462.715 175.912 470.949 213.294 429.291 195.854 417.138 164.095 462.715" fill="#9f616a"/><path d="M347.66667,656.57887l23.27053,16.21554.00094.00065a18.07611,18.07611,0,0,1,4.49515,25.16356l-.33583.4819L336.997,671.89089Z" transform="translate(-183.89698 -199.82188)" fill="#2f2e41"/><path d="M472.49955,671.42229l-.62235-104.21007L462.81533,501.686,445.9204,559.31028,407.34616,662.77572l-30.49272-9.12916,50.47237-124.77276,12.96773-55.92848,53.27-3.7085,11.61419,52.14288,9.00732,48.91826,11.9773,97.49043Z" transform="translate(-183.89698 -199.82188)" fill="#2f2e41"/><circle cx="249.75" cy="156.82773" r="28.4435" fill="#9f616a"/><path d="M411.75556,343.91852c-4.64445-5.24193-6.67418-12.11571-7.79732-18.99683-1.12315-6.88112-1.50137-14.10812,1.14385-20.51936,2.6452-6.41124,8.97343-11.52474,16.06546-11.96583,4.71711-.30865,9.79921.78417,13.00681,4.0866,1.48506,1.53068,2.54127,3.46756,3.85,5.11141,4.31005,5.41262,11.47487,7.71925,18.40641,8.90361s14.12605,1.644,20.38423,4.81246c7.33872,3.73137,12.44565,11.46413,13.46058,19.7403.79566,6.474-.98489,13.32123-5.21032,18.25228a22.23793,22.23793,0,0,1-19.98438,7.56776c-7.07008-.8721-13.14037-5.26333-17.51883-10.59333s-7.51535-11.7131-10.50051-18.04c-1.18787-2.5162-2.37573-5.03239-3.562-7.54913-1.87067-3.97923-3.99352-7.27642-7.5103-9.83961-3.51678-2.56319-8.12962-2.36231-12.04493-1.25862-.039.01863-.07638.0378-.13789.06495,1.42329.3932,1.51372,2.67026.79966,3.91231-.55346.9591-1.43131,1.92273-1.43332,3.036-.00028.79136.31709,1.55149.33492,2.34317.03951,1.75037-1.51959,1.94009-1.4802,3.68119a3.013,3.013,0,0,0,.78423,1.84055c1.1314,1.338,2.83992,1.91111,4.36641,2.71848A13.71481,13.71481,0,0,1,411.75556,343.91852Z" transform="translate(-183.89698 -199.82188)" fill="#2f2e41"/><path d="M514.49058,351.63224l-28.33071-8.143a4.81687,4.81687,0,0,1-3.10831-6.13817l11.91945-41.45019a13.37737,13.37737,0,0,1,26.25475,5.24009l1.83333,43.38474a4.81686,4.81686,0,0,1-4.74335,4.90587A4.9336,4.9336,0,0,1,514.49058,351.63224Z" transform="translate(-183.89698 -199.82188)" fill="#101820"/><path d="M446.56861,361.5385c.74512,1.84318,74.54823,2.03834,75.85717.34356.60518-7.51748,3.89172-72.34389,1.40313-74.51042-2.48822-2.1664-75.14333-8.27158-78.6489-5.72484C440.41126,285.69607,445.82349,359.69482,446.56861,361.5385Z" transform="translate(-183.89698 -199.82188)" fill="#e6e6e6"/><path d="M447.72992,286.69674l75.161-.82358-.7548,71.9766c-37.44776.62211-74.1352.69819-75.47395.13537Z" transform="translate(-183.89698 -199.82188)" fill="#ff6584"/><path d="M439.24713,388.88881c13.39047,3.56245,26.95655,3.85841,40.75849,3.55491,14.36686-.31371,28.73368-.72638,43.10067-.49791,3.26734.05259,6.53242.08317,9.795.324,1.30749.09669,1.3598,2.13791.04158,2.04061-14.36686-.31371-28.73368-.72638-43.10067-.49791-14.5213.23047-29.04264.42273-43.56441-.14074-3.84913-.14922-7.6983-.32215-11.52966-.687-1.24481-.11755-1.33235-2.00322-.10085-2.01042,1.1028.04774,2.2045.1201,3.30726.16878Z" transform="translate(-183.89698 -199.82188)" fill="#101820"/><path d="M466.12731,322.40341c3.48213,3.00247,8.61664,2.14149,12.23253-1.16866,4.56763-4.18483,4.97537-10.40372,4.33126-15.95252,3.13585,4.96292,9.78551,5.97473,14.16916,1.54259,4.38374-4.43226,3.67073-12.54328-1.01623-16.24922-4.31206-3.41615-10.42048-2.91944-15.18113-.73289-4.39153,2.01343-7.97129,5.60945-10.67246,9.79698-2.70126,4.18764-4.649,8.82667-4.90056,13.70666-.02431.4664.64425.57262.83621.26655a62.25871,62.25871,0,0,1,2.54695-3.54937Z" transform="translate(-183.89698 -199.82188)" fill="#101820"/><path d="M539.58537,340.70626a2.27159,2.27159,0,0,0,1.24371-2.6136l1.9945-8.84257-3.43878-.02931-1.01755,8.66081a2.28577,2.28577,0,0,0,1.21812,2.82467Z" transform="translate(-183.89698 -199.82188)" fill="#9f616a"/><path d="M541.58441,329.73277l-5.43881-2.54981,2.22539-8.03735,6.60433,1.79886Z" transform="translate(-183.89698 -199.82188)" fill="#101820"/><polygon points="79.861 472.949 67.604 472.948 61.772 425.66 79.864 425.661 79.861 472.949" fill="#9f616a"/><path d="M58.75845,469.44533h23.64384a0,0,0,0,1,0,0v14.88687a0,0,0,0,1,0,0H43.8716a0,0,0,0,1,0,0v0A14.88686,14.88686,0,0,1,58.75845,469.44533Z" fill="#2f2e41"/><polygon points="188.861 483.949 176.604 483.948 170.772 436.66 188.864 436.661 188.861 483.949" fill="#9f616a"/><path d="M167.75845,480.44533h23.64384a0,0,0,0,1,0,0v14.88687a0,0,0,0,1,0,0H152.8716a0,0,0,0,1,0,0v0A14.88686,14.88686,0,0,1,167.75845,480.44533Z" fill="#2f2e41"/><path d="M214.602,421.77065l-3.71956-3.22541s-18.95394,4.10743-25.19091,23.06136L156.53855,491.416l18.68582,2.05631,19.87427-40.68163,39.80154,39.39222,16.55621-9.87079Z" transform="translate(-183.89698 -199.82188)" fill="#2f2e41"/><circle cx="67.32675" cy="176.36870" r="25.78575" fill="#9f616a"/><path d="M235.25972,397.25422s11.5409,19.96549,2.05728,31.43636l33.6622,39.68634L301.70725,511.733l-26.26279,18.58533-65.96851-63.20522s-15.13067-33.92931-18.58533-37.27495c-3.4547-3.34571-12.93024-11.45-12.93024-11.45Z" transform="translate(-183.89698 -199.82188)" fill="#2f2e41"/><path d="M234.91492,364.58472s-25.4562,2.79362-32.24345,23.06136c0,0-23.34955,13.67591-23.34955,22.35131l11.5409,42.00427,5.13818,42.00428s39.7778-8.2211,53.29253-2.05728Z" transform="translate(-183.89698 -199.82188)" fill="#cbcbcb"/><path d="M276.20318,368.57414l11.35045-.30732a47.44209,47.44209,0,0,1,9.6729,63.80989l-9.08753,12.08334-20.96624-10.2768Z" transform="translate(-183.89698 -199.82188)" fill="#cbcbcb"/><path d="M261.77261,332.22044s-12.15183,4.81205-11.57676,23.205l-18.75817,26.94871,1.39582,67.76554,19.3865-4.81188s.36289-24.33024,7.79362-42.00844c7.43082-17.6783,18.75049-38.86261,18.75049-38.86261Z" transform="translate(-183.89698 -199.82188)" fill="#ffb7b7"/><path d="M219.77261,333.22044s12.15183,4.81205,11.57676,23.205l18.75817,26.94871-1.39582,67.76554-19.3865-4.81188s-.36289-24.33024-7.79362-42.00844c-7.43082-17.6783-18.75049-38.86261-18.75049-38.86261Z" transform="translate(-183.89698 -199.82188)" fill="#ffb7b7"/><path d="M277.14481,359.94472l10.2768-4.3378h5.82816l5.1236,15.50046v26.30017l-6.10507,32.741s-8.22136,5.95609-4.81228,12.93024l-8.94723,29.98157-10.41427-3.96323-.20527-33.46248Z" transform="translate(-183.89698 -199.82188)" fill="#cbcbcb"/><path d="M277.05033,359.9512l-3.43445-25.82241s-9.91776-5.30131-12.72951,11.5409-4.10908,79.91968-4.10908,79.91968L245.1561,453.431s16.86139,25.74127,30.0751,19.3369c13.21366-6.40443,14.60965-7.6538,14.60965-7.6538s-11.75245-36.217-12.00171-38.86621S277.05033,359.9512,277.05033,359.9512Z" transform="translate(-183.89698 -199.82188)" fill="#cbcbcb"/><path d="M261.76725,325.9957s-3.3174-2.91974-8.36653,1.9355-13.45708,9.38416-13.45708,9.38416,10.05535,2.45417,9.7175,4.88748,4.40895,7.26483,10.29534,6.31287,14.222-10.778,14.222-10.778-6.39067-7.97933-9.82274-8.13211S261.76725,325.9957,261.76725,325.9957Z" transform="translate(-183.89698 -199.82188)" fill="#2f2e41"/></svg>